<mxfile host="Electron" agent="Mozilla/5.0 (Windows NT 10.0; Win64; x64) AppleWebKit/537.36 (KHTML, like Gecko) draw.io/25.0.2 Chrome/128.0.6613.186 Electron/32.2.5 Safari/537.36" version="25.0.2">
  <diagram name="Страница — 1" id="4NCDOZgY241cAC1RPPkP">
    <mxGraphModel dx="1440" dy="1956" grid="1" gridSize="10" guides="1" tooltips="1" connect="1" arrows="1" fold="1" page="1" pageScale="1" pageWidth="827" pageHeight="1169" math="0" shadow="0">
      <root>
        <mxCell id="0" />
        <mxCell id="1" parent="0" />
        <mxCell id="rwiLKkTHSAhQbcyG1G1G-28" value="Учащийся" style="swimlane;fontStyle=1;align=center;verticalAlign=top;childLayout=stackLayout;horizontal=1;startSize=26;horizontalStack=0;resizeParent=1;resizeParentMax=0;resizeLast=0;collapsible=1;marginBottom=0;whiteSpace=wrap;html=1;" parent="1" vertex="1">
          <mxGeometry x="730" y="160" width="190" height="202" as="geometry" />
        </mxCell>
        <mxCell id="rwiLKkTHSAhQbcyG1G1G-34" value="+ имя" style="text;strokeColor=none;fillColor=none;align=left;verticalAlign=top;spacingLeft=4;spacingRight=4;overflow=hidden;rotatable=0;points=[[0,0.5],[1,0.5]];portConstraint=eastwest;whiteSpace=wrap;html=1;" parent="rwiLKkTHSAhQbcyG1G1G-28" vertex="1">
          <mxGeometry y="26" width="190" height="26" as="geometry" />
        </mxCell>
        <mxCell id="rwiLKkTHSAhQbcyG1G1G-35" value="+ фамилия" style="text;strokeColor=none;fillColor=none;align=left;verticalAlign=top;spacingLeft=4;spacingRight=4;overflow=hidden;rotatable=0;points=[[0,0.5],[1,0.5]];portConstraint=eastwest;whiteSpace=wrap;html=1;" parent="rwiLKkTHSAhQbcyG1G1G-28" vertex="1">
          <mxGeometry y="52" width="190" height="26" as="geometry" />
        </mxCell>
        <mxCell id="WrH0xrYeRPT7N6w4zJTb-24" value="+ TelegramID" style="text;strokeColor=none;fillColor=none;align=left;verticalAlign=top;spacingLeft=4;spacingRight=4;overflow=hidden;rotatable=0;points=[[0,0.5],[1,0.5]];portConstraint=eastwest;whiteSpace=wrap;html=1;" parent="rwiLKkTHSAhQbcyG1G1G-28" vertex="1">
          <mxGeometry y="78" width="190" height="26" as="geometry" />
        </mxCell>
        <mxCell id="rwiLKkTHSAhQbcyG1G1G-30" value="" style="line;strokeWidth=1;fillColor=none;align=left;verticalAlign=middle;spacingTop=-1;spacingLeft=3;spacingRight=3;rotatable=0;labelPosition=right;points=[];portConstraint=eastwest;strokeColor=inherit;" parent="rwiLKkTHSAhQbcyG1G1G-28" vertex="1">
          <mxGeometry y="104" width="190" height="8" as="geometry" />
        </mxCell>
        <mxCell id="rwiLKkTHSAhQbcyG1G1G-32" value="- получение_статей()" style="text;strokeColor=none;fillColor=none;align=left;verticalAlign=top;spacingLeft=4;spacingRight=4;overflow=hidden;rotatable=0;points=[[0,0.5],[1,0.5]];portConstraint=eastwest;whiteSpace=wrap;html=1;" parent="rwiLKkTHSAhQbcyG1G1G-28" vertex="1">
          <mxGeometry y="112" width="190" height="18" as="geometry" />
        </mxCell>
        <mxCell id="rwiLKkTHSAhQbcyG1G1G-36" value="- прохождение_тестов" style="text;strokeColor=none;fillColor=none;align=left;verticalAlign=top;spacingLeft=4;spacingRight=4;overflow=hidden;rotatable=0;points=[[0,0.5],[1,0.5]];portConstraint=eastwest;whiteSpace=wrap;html=1;" parent="rwiLKkTHSAhQbcyG1G1G-28" vertex="1">
          <mxGeometry y="130" width="190" height="22" as="geometry" />
        </mxCell>
        <mxCell id="WrH0xrYeRPT7N6w4zJTb-25" value="- прохождение_анкет" style="text;strokeColor=none;fillColor=none;align=left;verticalAlign=top;spacingLeft=4;spacingRight=4;overflow=hidden;rotatable=0;points=[[0,0.5],[1,0.5]];portConstraint=eastwest;whiteSpace=wrap;html=1;" parent="rwiLKkTHSAhQbcyG1G1G-28" vertex="1">
          <mxGeometry y="152" width="190" height="22" as="geometry" />
        </mxCell>
        <mxCell id="rwiLKkTHSAhQbcyG1G1G-31" value="- получение_новостей()" style="text;strokeColor=none;fillColor=none;align=left;verticalAlign=top;spacingLeft=4;spacingRight=4;overflow=hidden;rotatable=0;points=[[0,0.5],[1,0.5]];portConstraint=eastwest;whiteSpace=wrap;html=1;" parent="rwiLKkTHSAhQbcyG1G1G-28" vertex="1">
          <mxGeometry y="174" width="190" height="28" as="geometry" />
        </mxCell>
        <mxCell id="rwiLKkTHSAhQbcyG1G1G-45" value="Администратор" style="swimlane;fontStyle=1;align=center;verticalAlign=top;childLayout=stackLayout;horizontal=1;startSize=26;horizontalStack=0;resizeParent=1;resizeParentMax=0;resizeLast=0;collapsible=1;marginBottom=0;whiteSpace=wrap;html=1;" parent="1" vertex="1">
          <mxGeometry x="415" y="-155" width="260" height="176" as="geometry" />
        </mxCell>
        <mxCell id="rwiLKkTHSAhQbcyG1G1G-46" value="+ имя" style="text;strokeColor=none;fillColor=none;align=left;verticalAlign=top;spacingLeft=4;spacingRight=4;overflow=hidden;rotatable=0;points=[[0,0.5],[1,0.5]];portConstraint=eastwest;whiteSpace=wrap;html=1;" parent="rwiLKkTHSAhQbcyG1G1G-45" vertex="1">
          <mxGeometry y="26" width="260" height="26" as="geometry" />
        </mxCell>
        <mxCell id="rwiLKkTHSAhQbcyG1G1G-47" value="+ фамилия" style="text;strokeColor=none;fillColor=none;align=left;verticalAlign=top;spacingLeft=4;spacingRight=4;overflow=hidden;rotatable=0;points=[[0,0.5],[1,0.5]];portConstraint=eastwest;whiteSpace=wrap;html=1;" parent="rwiLKkTHSAhQbcyG1G1G-45" vertex="1">
          <mxGeometry y="52" width="260" height="26" as="geometry" />
        </mxCell>
        <mxCell id="rwiLKkTHSAhQbcyG1G1G-49" value="" style="line;strokeWidth=1;fillColor=none;align=left;verticalAlign=middle;spacingTop=-1;spacingLeft=3;spacingRight=3;rotatable=0;labelPosition=right;points=[];portConstraint=eastwest;strokeColor=inherit;" parent="rwiLKkTHSAhQbcyG1G1G-45" vertex="1">
          <mxGeometry y="78" width="260" height="8" as="geometry" />
        </mxCell>
        <mxCell id="rwiLKkTHSAhQbcyG1G1G-50" value="- заблокировать_пользователя()" style="text;strokeColor=none;fillColor=none;align=left;verticalAlign=top;spacingLeft=4;spacingRight=4;overflow=hidden;rotatable=0;points=[[0,0.5],[1,0.5]];portConstraint=eastwest;whiteSpace=wrap;html=1;" parent="rwiLKkTHSAhQbcyG1G1G-45" vertex="1">
          <mxGeometry y="86" width="260" height="18" as="geometry" />
        </mxCell>
        <mxCell id="WrH0xrYeRPT7N6w4zJTb-14" value="-список_заблокированных_пользователей()" style="text;strokeColor=none;fillColor=none;align=left;verticalAlign=top;spacingLeft=4;spacingRight=4;overflow=hidden;rotatable=0;points=[[0,0.5],[1,0.5]];portConstraint=eastwest;whiteSpace=wrap;html=1;" parent="rwiLKkTHSAhQbcyG1G1G-45" vertex="1">
          <mxGeometry y="104" width="260" height="26" as="geometry" />
        </mxCell>
        <mxCell id="rwiLKkTHSAhQbcyG1G1G-51" value="- разблокировать_пользователя()" style="text;strokeColor=none;fillColor=none;align=left;verticalAlign=top;spacingLeft=4;spacingRight=4;overflow=hidden;rotatable=0;points=[[0,0.5],[1,0.5]];portConstraint=eastwest;whiteSpace=wrap;html=1;" parent="rwiLKkTHSAhQbcyG1G1G-45" vertex="1">
          <mxGeometry y="130" width="260" height="46" as="geometry" />
        </mxCell>
        <mxCell id="rwiLKkTHSAhQbcyG1G1G-53" value="Психолог" style="swimlane;fontStyle=1;align=center;verticalAlign=top;childLayout=stackLayout;horizontal=1;startSize=26;horizontalStack=0;resizeParent=1;resizeParentMax=0;resizeLast=0;collapsible=1;marginBottom=0;whiteSpace=wrap;html=1;" parent="1" vertex="1">
          <mxGeometry x="1020" y="-90" width="190" height="160" as="geometry" />
        </mxCell>
        <mxCell id="rwiLKkTHSAhQbcyG1G1G-54" value="+ имя" style="text;strokeColor=none;fillColor=none;align=left;verticalAlign=top;spacingLeft=4;spacingRight=4;overflow=hidden;rotatable=0;points=[[0,0.5],[1,0.5]];portConstraint=eastwest;whiteSpace=wrap;html=1;" parent="rwiLKkTHSAhQbcyG1G1G-53" vertex="1">
          <mxGeometry y="26" width="190" height="26" as="geometry" />
        </mxCell>
        <mxCell id="rwiLKkTHSAhQbcyG1G1G-55" value="+ фамилия" style="text;strokeColor=none;fillColor=none;align=left;verticalAlign=top;spacingLeft=4;spacingRight=4;overflow=hidden;rotatable=0;points=[[0,0.5],[1,0.5]];portConstraint=eastwest;whiteSpace=wrap;html=1;" parent="rwiLKkTHSAhQbcyG1G1G-53" vertex="1">
          <mxGeometry y="52" width="190" height="26" as="geometry" />
        </mxCell>
        <mxCell id="rwiLKkTHSAhQbcyG1G1G-56" value="" style="line;strokeWidth=1;fillColor=none;align=left;verticalAlign=middle;spacingTop=-1;spacingLeft=3;spacingRight=3;rotatable=0;labelPosition=right;points=[];portConstraint=eastwest;strokeColor=inherit;" parent="rwiLKkTHSAhQbcyG1G1G-53" vertex="1">
          <mxGeometry y="78" width="190" height="8" as="geometry" />
        </mxCell>
        <mxCell id="rwiLKkTHSAhQbcyG1G1G-57" value="- добавление_контента()" style="text;strokeColor=none;fillColor=none;align=left;verticalAlign=top;spacingLeft=4;spacingRight=4;overflow=hidden;rotatable=0;points=[[0,0.5],[1,0.5]];portConstraint=eastwest;whiteSpace=wrap;html=1;" parent="rwiLKkTHSAhQbcyG1G1G-53" vertex="1">
          <mxGeometry y="86" width="190" height="18" as="geometry" />
        </mxCell>
        <mxCell id="rwiLKkTHSAhQbcyG1G1G-58" value="- разработка_анкет()&lt;div&gt;- анонимная_поддержка()&lt;/div&gt;" style="text;strokeColor=none;fillColor=none;align=left;verticalAlign=top;spacingLeft=4;spacingRight=4;overflow=hidden;rotatable=0;points=[[0,0.5],[1,0.5]];portConstraint=eastwest;whiteSpace=wrap;html=1;" parent="rwiLKkTHSAhQbcyG1G1G-53" vertex="1">
          <mxGeometry y="104" width="190" height="56" as="geometry" />
        </mxCell>
        <mxCell id="rwiLKkTHSAhQbcyG1G1G-59" value="Статья" style="swimlane;fontStyle=1;align=center;verticalAlign=top;childLayout=stackLayout;horizontal=1;startSize=26;horizontalStack=0;resizeParent=1;resizeParentMax=0;resizeLast=0;collapsible=1;marginBottom=0;whiteSpace=wrap;html=1;" parent="1" vertex="1">
          <mxGeometry x="710" y="-90" width="190" height="94" as="geometry" />
        </mxCell>
        <mxCell id="rwiLKkTHSAhQbcyG1G1G-60" value="+ содержание_статьи" style="text;strokeColor=none;fillColor=none;align=left;verticalAlign=top;spacingLeft=4;spacingRight=4;overflow=hidden;rotatable=0;points=[[0,0.5],[1,0.5]];portConstraint=eastwest;whiteSpace=wrap;html=1;" parent="rwiLKkTHSAhQbcyG1G1G-59" vertex="1">
          <mxGeometry y="26" width="190" height="26" as="geometry" />
        </mxCell>
        <mxCell id="rwiLKkTHSAhQbcyG1G1G-63" value="" style="line;strokeWidth=1;fillColor=none;align=left;verticalAlign=middle;spacingTop=-1;spacingLeft=3;spacingRight=3;rotatable=0;labelPosition=right;points=[];portConstraint=eastwest;strokeColor=inherit;" parent="rwiLKkTHSAhQbcyG1G1G-59" vertex="1">
          <mxGeometry y="52" width="190" height="8" as="geometry" />
        </mxCell>
        <mxCell id="rwiLKkTHSAhQbcyG1G1G-64" value="- добавить_статью()" style="text;strokeColor=none;fillColor=none;align=left;verticalAlign=top;spacingLeft=4;spacingRight=4;overflow=hidden;rotatable=0;points=[[0,0.5],[1,0.5]];portConstraint=eastwest;whiteSpace=wrap;html=1;" parent="rwiLKkTHSAhQbcyG1G1G-59" vertex="1">
          <mxGeometry y="60" width="190" height="34" as="geometry" />
        </mxCell>
        <mxCell id="rwiLKkTHSAhQbcyG1G1G-67" value="Тест" style="swimlane;fontStyle=1;align=center;verticalAlign=top;childLayout=stackLayout;horizontal=1;startSize=26;horizontalStack=0;resizeParent=1;resizeParentMax=0;resizeLast=0;collapsible=1;marginBottom=0;whiteSpace=wrap;html=1;" parent="1" vertex="1">
          <mxGeometry x="180" y="90" width="190" height="114" as="geometry" />
        </mxCell>
        <mxCell id="rwiLKkTHSAhQbcyG1G1G-68" value="+ название" style="text;strokeColor=none;fillColor=none;align=left;verticalAlign=top;spacingLeft=4;spacingRight=4;overflow=hidden;rotatable=0;points=[[0,0.5],[1,0.5]];portConstraint=eastwest;whiteSpace=wrap;html=1;" parent="rwiLKkTHSAhQbcyG1G1G-67" vertex="1">
          <mxGeometry y="26" width="190" height="26" as="geometry" />
        </mxCell>
        <mxCell id="rwiLKkTHSAhQbcyG1G1G-70" value="" style="line;strokeWidth=1;fillColor=none;align=left;verticalAlign=middle;spacingTop=-1;spacingLeft=3;spacingRight=3;rotatable=0;labelPosition=right;points=[];portConstraint=eastwest;strokeColor=inherit;" parent="rwiLKkTHSAhQbcyG1G1G-67" vertex="1">
          <mxGeometry y="52" width="190" height="8" as="geometry" />
        </mxCell>
        <mxCell id="rwiLKkTHSAhQbcyG1G1G-71" value="- добавить_тест()" style="text;strokeColor=none;fillColor=none;align=left;verticalAlign=top;spacingLeft=4;spacingRight=4;overflow=hidden;rotatable=0;points=[[0,0.5],[1,0.5]];portConstraint=eastwest;whiteSpace=wrap;html=1;" parent="rwiLKkTHSAhQbcyG1G1G-67" vertex="1">
          <mxGeometry y="60" width="190" height="18" as="geometry" />
        </mxCell>
        <mxCell id="rwiLKkTHSAhQbcyG1G1G-72" value="- удалить_тест()" style="text;strokeColor=none;fillColor=none;align=left;verticalAlign=top;spacingLeft=4;spacingRight=4;overflow=hidden;rotatable=0;points=[[0,0.5],[1,0.5]];portConstraint=eastwest;whiteSpace=wrap;html=1;" parent="rwiLKkTHSAhQbcyG1G1G-67" vertex="1">
          <mxGeometry y="78" width="190" height="36" as="geometry" />
        </mxCell>
        <mxCell id="rwiLKkTHSAhQbcyG1G1G-74" value="Анкета" style="swimlane;fontStyle=1;align=center;verticalAlign=top;childLayout=stackLayout;horizontal=1;startSize=26;horizontalStack=0;resizeParent=1;resizeParentMax=0;resizeLast=0;collapsible=1;marginBottom=0;whiteSpace=wrap;html=1;" parent="1" vertex="1">
          <mxGeometry x="1280" y="94" width="190" height="110" as="geometry" />
        </mxCell>
        <mxCell id="rwiLKkTHSAhQbcyG1G1G-75" value="+ заголовок" style="text;strokeColor=none;fillColor=none;align=left;verticalAlign=top;spacingLeft=4;spacingRight=4;overflow=hidden;rotatable=0;points=[[0,0.5],[1,0.5]];portConstraint=eastwest;whiteSpace=wrap;html=1;" parent="rwiLKkTHSAhQbcyG1G1G-74" vertex="1">
          <mxGeometry y="26" width="190" height="26" as="geometry" />
        </mxCell>
        <mxCell id="rwiLKkTHSAhQbcyG1G1G-76" value="+ описание" style="text;strokeColor=none;fillColor=none;align=left;verticalAlign=top;spacingLeft=4;spacingRight=4;overflow=hidden;rotatable=0;points=[[0,0.5],[1,0.5]];portConstraint=eastwest;whiteSpace=wrap;html=1;" parent="rwiLKkTHSAhQbcyG1G1G-74" vertex="1">
          <mxGeometry y="52" width="190" height="26" as="geometry" />
        </mxCell>
        <mxCell id="rwiLKkTHSAhQbcyG1G1G-77" value="" style="line;strokeWidth=1;fillColor=none;align=left;verticalAlign=middle;spacingTop=-1;spacingLeft=3;spacingRight=3;rotatable=0;labelPosition=right;points=[];portConstraint=eastwest;strokeColor=inherit;" parent="rwiLKkTHSAhQbcyG1G1G-74" vertex="1">
          <mxGeometry y="78" width="190" height="8" as="geometry" />
        </mxCell>
        <mxCell id="rwiLKkTHSAhQbcyG1G1G-78" value="- добавить_анкету()" style="text;strokeColor=none;fillColor=none;align=left;verticalAlign=top;spacingLeft=4;spacingRight=4;overflow=hidden;rotatable=0;points=[[0,0.5],[1,0.5]];portConstraint=eastwest;whiteSpace=wrap;html=1;" parent="rwiLKkTHSAhQbcyG1G1G-74" vertex="1">
          <mxGeometry y="86" width="190" height="24" as="geometry" />
        </mxCell>
        <mxCell id="rwiLKkTHSAhQbcyG1G1G-81" value="Результат теста" style="swimlane;fontStyle=1;align=center;verticalAlign=top;childLayout=stackLayout;horizontal=1;startSize=26;horizontalStack=0;resizeParent=1;resizeParentMax=0;resizeLast=0;collapsible=1;marginBottom=0;whiteSpace=wrap;html=1;" parent="1" vertex="1">
          <mxGeometry x="460" y="220" width="190" height="90" as="geometry" />
        </mxCell>
        <mxCell id="rwiLKkTHSAhQbcyG1G1G-82" value="+ результат_теста" style="text;strokeColor=none;fillColor=none;align=left;verticalAlign=top;spacingLeft=4;spacingRight=4;overflow=hidden;rotatable=0;points=[[0,0.5],[1,0.5]];portConstraint=eastwest;whiteSpace=wrap;html=1;" parent="rwiLKkTHSAhQbcyG1G1G-81" vertex="1">
          <mxGeometry y="26" width="190" height="26" as="geometry" />
        </mxCell>
        <mxCell id="rwiLKkTHSAhQbcyG1G1G-84" value="" style="line;strokeWidth=1;fillColor=none;align=left;verticalAlign=middle;spacingTop=-1;spacingLeft=3;spacingRight=3;rotatable=0;labelPosition=right;points=[];portConstraint=eastwest;strokeColor=inherit;" parent="rwiLKkTHSAhQbcyG1G1G-81" vertex="1">
          <mxGeometry y="52" width="190" height="8" as="geometry" />
        </mxCell>
        <mxCell id="rwiLKkTHSAhQbcyG1G1G-85" value="- просмотреть_результат()" style="text;strokeColor=none;fillColor=none;align=left;verticalAlign=top;spacingLeft=4;spacingRight=4;overflow=hidden;rotatable=0;points=[[0,0.5],[1,0.5]];portConstraint=eastwest;whiteSpace=wrap;html=1;" parent="rwiLKkTHSAhQbcyG1G1G-81" vertex="1">
          <mxGeometry y="60" width="190" height="30" as="geometry" />
        </mxCell>
        <mxCell id="rwiLKkTHSAhQbcyG1G1G-115" value="" style="endArrow=none;html=1;rounded=0;entryX=1;entryY=0.1;entryDx=0;entryDy=0;entryPerimeter=0;exitX=0.001;exitY=0.126;exitDx=0;exitDy=0;exitPerimeter=0;" parent="1" source="rwiLKkTHSAhQbcyG1G1G-74" target="rwiLKkTHSAhQbcyG1G1G-53" edge="1">
          <mxGeometry width="50" height="50" relative="1" as="geometry">
            <mxPoint x="1230" y="160" as="sourcePoint" />
            <mxPoint x="1280" y="110" as="targetPoint" />
          </mxGeometry>
        </mxCell>
        <mxCell id="rwiLKkTHSAhQbcyG1G1G-116" value="" style="endArrow=none;html=1;rounded=0;entryX=0.001;entryY=0.095;entryDx=0;entryDy=0;entryPerimeter=0;exitX=1;exitY=0.107;exitDx=0;exitDy=0;exitPerimeter=0;" parent="1" edge="1">
          <mxGeometry width="50" height="50" relative="1" as="geometry">
            <mxPoint x="899.81" y="-73.01999999999998" as="sourcePoint" />
            <mxPoint x="1019.9999999999998" y="-72.79999999999995" as="targetPoint" />
          </mxGeometry>
        </mxCell>
        <mxCell id="rwiLKkTHSAhQbcyG1G1G-117" value="1" style="text;html=1;align=center;verticalAlign=middle;resizable=0;points=[];autosize=1;strokeColor=none;fillColor=none;" parent="1" vertex="1">
          <mxGeometry x="990" y="-100" width="30" height="30" as="geometry" />
        </mxCell>
        <mxCell id="rwiLKkTHSAhQbcyG1G1G-118" value="*" style="text;html=1;align=center;verticalAlign=middle;resizable=0;points=[];autosize=1;strokeColor=none;fillColor=none;" parent="1" vertex="1">
          <mxGeometry x="894.81" y="-100" width="30" height="30" as="geometry" />
        </mxCell>
        <mxCell id="rwiLKkTHSAhQbcyG1G1G-120" value="1" style="text;html=1;align=center;verticalAlign=middle;resizable=0;points=[];autosize=1;strokeColor=none;fillColor=none;" parent="1" vertex="1">
          <mxGeometry x="1205" y="-92" width="30" height="30" as="geometry" />
        </mxCell>
        <mxCell id="rwiLKkTHSAhQbcyG1G1G-121" value="*" style="text;html=1;align=center;verticalAlign=middle;resizable=0;points=[];autosize=1;strokeColor=none;fillColor=none;" parent="1" vertex="1">
          <mxGeometry x="1260" y="64" width="30" height="30" as="geometry" />
        </mxCell>
        <mxCell id="rwiLKkTHSAhQbcyG1G1G-122" value="" style="endArrow=none;html=1;rounded=0;exitX=1.002;exitY=0.163;exitDx=0;exitDy=0;exitPerimeter=0;" parent="1" source="rwiLKkTHSAhQbcyG1G1G-81" edge="1">
          <mxGeometry width="50" height="50" relative="1" as="geometry">
            <mxPoint x="680" y="220" as="sourcePoint" />
            <mxPoint x="730" y="170" as="targetPoint" />
          </mxGeometry>
        </mxCell>
        <mxCell id="rwiLKkTHSAhQbcyG1G1G-126" value="1" style="text;html=1;align=center;verticalAlign=middle;resizable=0;points=[];autosize=1;strokeColor=none;fillColor=none;" parent="1" vertex="1">
          <mxGeometry x="700" y="150" width="30" height="30" as="geometry" />
        </mxCell>
        <mxCell id="rwiLKkTHSAhQbcyG1G1G-127" value="*" style="text;html=1;align=center;verticalAlign=middle;resizable=0;points=[];autosize=1;strokeColor=none;fillColor=none;" parent="1" vertex="1">
          <mxGeometry x="645" y="200" width="30" height="30" as="geometry" />
        </mxCell>
        <mxCell id="rwiLKkTHSAhQbcyG1G1G-129" value="" style="endArrow=none;html=1;rounded=0;entryX=1;entryY=0.133;entryDx=0;entryDy=0;entryPerimeter=0;exitX=0.001;exitY=0.161;exitDx=0;exitDy=0;exitPerimeter=0;" parent="1" source="rwiLKkTHSAhQbcyG1G1G-81" target="rwiLKkTHSAhQbcyG1G1G-67" edge="1">
          <mxGeometry width="50" height="50" relative="1" as="geometry">
            <mxPoint x="390" y="260" as="sourcePoint" />
            <mxPoint x="440" y="210" as="targetPoint" />
          </mxGeometry>
        </mxCell>
        <mxCell id="rwiLKkTHSAhQbcyG1G1G-130" value="1" style="text;html=1;align=center;verticalAlign=middle;resizable=0;points=[];autosize=1;strokeColor=none;fillColor=none;" parent="1" vertex="1">
          <mxGeometry x="365" y="88" width="30" height="30" as="geometry" />
        </mxCell>
        <mxCell id="rwiLKkTHSAhQbcyG1G1G-131" value="*" style="text;html=1;align=center;verticalAlign=middle;resizable=0;points=[];autosize=1;strokeColor=none;fillColor=none;" parent="1" vertex="1">
          <mxGeometry x="445" y="190" width="30" height="30" as="geometry" />
        </mxCell>
        <mxCell id="TPSr9yGa7AURYz1Z4cIN-1" value="Анонимное сообщение" style="swimlane;fontStyle=1;align=center;verticalAlign=top;childLayout=stackLayout;horizontal=1;startSize=26;horizontalStack=0;resizeParent=1;resizeParentMax=0;resizeLast=0;collapsible=1;marginBottom=0;whiteSpace=wrap;html=1;" parent="1" vertex="1">
          <mxGeometry x="460" y="370" width="190" height="192" as="geometry" />
        </mxCell>
        <mxCell id="TPSr9yGa7AURYz1Z4cIN-2" value="+ имя" style="text;strokeColor=none;fillColor=none;align=left;verticalAlign=top;spacingLeft=4;spacingRight=4;overflow=hidden;rotatable=0;points=[[0,0.5],[1,0.5]];portConstraint=eastwest;whiteSpace=wrap;html=1;" parent="TPSr9yGa7AURYz1Z4cIN-1" vertex="1">
          <mxGeometry y="26" width="190" height="26" as="geometry" />
        </mxCell>
        <mxCell id="TPSr9yGa7AURYz1Z4cIN-3" value="+ фамилия" style="text;strokeColor=none;fillColor=none;align=left;verticalAlign=top;spacingLeft=4;spacingRight=4;overflow=hidden;rotatable=0;points=[[0,0.5],[1,0.5]];portConstraint=eastwest;whiteSpace=wrap;html=1;" parent="TPSr9yGa7AURYz1Z4cIN-1" vertex="1">
          <mxGeometry y="52" width="190" height="26" as="geometry" />
        </mxCell>
        <mxCell id="TPSr9yGa7AURYz1Z4cIN-9" value="+ текст_сообщения" style="text;strokeColor=none;fillColor=none;align=left;verticalAlign=top;spacingLeft=4;spacingRight=4;overflow=hidden;rotatable=0;points=[[0,0.5],[1,0.5]];portConstraint=eastwest;whiteSpace=wrap;html=1;" parent="TPSr9yGa7AURYz1Z4cIN-1" vertex="1">
          <mxGeometry y="78" width="190" height="26" as="geometry" />
        </mxCell>
        <mxCell id="TPSr9yGa7AURYz1Z4cIN-10" value="+ ответ_психолога&lt;span style=&quot;color: rgba(0, 0, 0, 0); font-family: monospace; font-size: 0px; text-wrap: nowrap;&quot;&gt;%3CmxGraphModel%3E%3Croot%3E%3CmxCell%20id%3D%220%22%2F%3E%3CmxCell%20id%3D%221%22%20parent%3D%220%22%2F%3E%3CmxCell%20id%3D%222%22%20value%3D%22%2B%20id_%D0%BF%D1%81%D0%B8%D1%85%D0%BE%D0%BB%D0%BE%D0%B3%D0%B0%22%20style%3D%22text%3BstrokeColor%3Dnone%3BfillColor%3Dnone%3Balign%3Dleft%3BverticalAlign%3Dtop%3BspacingLeft%3D4%3BspacingRight%3D4%3Boverflow%3Dhidden%3Brotatable%3D0%3Bpoints%3D%5B%5B0%2C0.5%5D%2C%5B1%2C0.5%5D%5D%3BportConstraint%3Deastwest%3BwhiteSpace%3Dwrap%3Bhtml%3D1%3B%22%20vertex%3D%221%22%20parent%3D%221%22%3E%3CmxGeometry%20x%3D%22460%22%20y%3D%22-286%22%20width%3D%22190%22%20height%3D%2226%22%20as%3D%22geometry%22%2F%3E%3C%2FmxCell%3E%3C%2Froot%3E%3C%2FmxGraphModel%3E&lt;/span&gt;" style="text;strokeColor=none;fillColor=none;align=left;verticalAlign=top;spacingLeft=4;spacingRight=4;overflow=hidden;rotatable=0;points=[[0,0.5],[1,0.5]];portConstraint=eastwest;whiteSpace=wrap;html=1;" parent="TPSr9yGa7AURYz1Z4cIN-1" vertex="1">
          <mxGeometry y="104" width="190" height="26" as="geometry" />
        </mxCell>
        <mxCell id="TPSr9yGa7AURYz1Z4cIN-4" value="" style="line;strokeWidth=1;fillColor=none;align=left;verticalAlign=middle;spacingTop=-1;spacingLeft=3;spacingRight=3;rotatable=0;labelPosition=right;points=[];portConstraint=eastwest;strokeColor=inherit;" parent="TPSr9yGa7AURYz1Z4cIN-1" vertex="1">
          <mxGeometry y="130" width="190" height="8" as="geometry" />
        </mxCell>
        <mxCell id="TPSr9yGa7AURYz1Z4cIN-5" value="- отправить_сообщение()" style="text;strokeColor=none;fillColor=none;align=left;verticalAlign=top;spacingLeft=4;spacingRight=4;overflow=hidden;rotatable=0;points=[[0,0.5],[1,0.5]];portConstraint=eastwest;whiteSpace=wrap;html=1;" parent="TPSr9yGa7AURYz1Z4cIN-1" vertex="1">
          <mxGeometry y="138" width="190" height="18" as="geometry" />
        </mxCell>
        <mxCell id="TPSr9yGa7AURYz1Z4cIN-6" value="- ответить_на_сообщение()" style="text;strokeColor=none;fillColor=none;align=left;verticalAlign=top;spacingLeft=4;spacingRight=4;overflow=hidden;rotatable=0;points=[[0,0.5],[1,0.5]];portConstraint=eastwest;whiteSpace=wrap;html=1;" parent="TPSr9yGa7AURYz1Z4cIN-1" vertex="1">
          <mxGeometry y="156" width="190" height="36" as="geometry" />
        </mxCell>
        <mxCell id="TPSr9yGa7AURYz1Z4cIN-12" value="&lt;font style=&quot;font-size: 11px;&quot;&gt;Заблокированный пользователь&lt;/font&gt;" style="swimlane;fontStyle=1;align=center;verticalAlign=top;childLayout=stackLayout;horizontal=1;startSize=26;horizontalStack=0;resizeParent=1;resizeParentMax=0;resizeLast=0;collapsible=1;marginBottom=0;whiteSpace=wrap;html=1;" parent="1" vertex="1">
          <mxGeometry x="170" y="-155" width="190" height="134" as="geometry" />
        </mxCell>
        <mxCell id="TPSr9yGa7AURYz1Z4cIN-13" value="+ TelegramID" style="text;strokeColor=none;fillColor=none;align=left;verticalAlign=top;spacingLeft=4;spacingRight=4;overflow=hidden;rotatable=0;points=[[0,0.5],[1,0.5]];portConstraint=eastwest;whiteSpace=wrap;html=1;" parent="TPSr9yGa7AURYz1Z4cIN-12" vertex="1">
          <mxGeometry y="26" width="190" height="26" as="geometry" />
        </mxCell>
        <mxCell id="TPSr9yGa7AURYz1Z4cIN-15" value="" style="line;strokeWidth=1;fillColor=none;align=left;verticalAlign=middle;spacingTop=-1;spacingLeft=3;spacingRight=3;rotatable=0;labelPosition=right;points=[];portConstraint=eastwest;strokeColor=inherit;" parent="TPSr9yGa7AURYz1Z4cIN-12" vertex="1">
          <mxGeometry y="52" width="190" height="8" as="geometry" />
        </mxCell>
        <mxCell id="TPSr9yGa7AURYz1Z4cIN-16" value="&lt;font style=&quot;font-size: 11px;&quot;&gt;- заблокировать_пользователя()&lt;/font&gt;" style="text;strokeColor=none;fillColor=none;align=left;verticalAlign=top;spacingLeft=4;spacingRight=4;overflow=hidden;rotatable=0;points=[[0,0.5],[1,0.5]];portConstraint=eastwest;whiteSpace=wrap;html=1;" parent="TPSr9yGa7AURYz1Z4cIN-12" vertex="1">
          <mxGeometry y="60" width="190" height="18" as="geometry" />
        </mxCell>
        <mxCell id="TPSr9yGa7AURYz1Z4cIN-17" value="&lt;font style=&quot;font-size: 11px;&quot;&gt;- разблокировать_пользователя()&lt;/font&gt;" style="text;strokeColor=none;fillColor=none;align=left;verticalAlign=top;spacingLeft=4;spacingRight=4;overflow=hidden;rotatable=0;points=[[0,0.5],[1,0.5]];portConstraint=eastwest;whiteSpace=wrap;html=1;" parent="TPSr9yGa7AURYz1Z4cIN-12" vertex="1">
          <mxGeometry y="78" width="190" height="56" as="geometry" />
        </mxCell>
        <mxCell id="TPSr9yGa7AURYz1Z4cIN-18" value="" style="endArrow=none;html=1;rounded=0;entryX=0.002;entryY=0.082;entryDx=0;entryDy=0;entryPerimeter=0;exitX=0.999;exitY=0.082;exitDx=0;exitDy=0;exitPerimeter=0;" parent="1" source="TPSr9yGa7AURYz1Z4cIN-12" target="rwiLKkTHSAhQbcyG1G1G-45" edge="1">
          <mxGeometry width="50" height="50" relative="1" as="geometry">
            <mxPoint x="360" y="-140" as="sourcePoint" />
            <mxPoint x="450" y="-220" as="targetPoint" />
          </mxGeometry>
        </mxCell>
        <mxCell id="TPSr9yGa7AURYz1Z4cIN-19" value="1" style="text;html=1;align=center;verticalAlign=middle;resizable=0;points=[];autosize=1;strokeColor=none;fillColor=none;" parent="1" vertex="1">
          <mxGeometry x="395" y="-170" width="30" height="30" as="geometry" />
        </mxCell>
        <mxCell id="TPSr9yGa7AURYz1Z4cIN-20" value="*" style="text;html=1;align=center;verticalAlign=middle;resizable=0;points=[];autosize=1;strokeColor=none;fillColor=none;" parent="1" vertex="1">
          <mxGeometry x="355" y="-170" width="30" height="30" as="geometry" />
        </mxCell>
        <mxCell id="TPSr9yGa7AURYz1Z4cIN-21" value="" style="endArrow=none;html=1;rounded=0;exitX=1;exitY=0.031;exitDx=0;exitDy=0;exitPerimeter=0;entryX=-0.001;entryY=0.115;entryDx=0;entryDy=0;entryPerimeter=0;" parent="1" source="TPSr9yGa7AURYz1Z4cIN-1" target="rwiLKkTHSAhQbcyG1G1G-28" edge="1">
          <mxGeometry width="50" height="50" relative="1" as="geometry">
            <mxPoint x="660" y="245" as="sourcePoint" />
            <mxPoint x="740" y="180" as="targetPoint" />
          </mxGeometry>
        </mxCell>
        <mxCell id="TPSr9yGa7AURYz1Z4cIN-22" value="1" style="text;html=1;align=center;verticalAlign=middle;resizable=0;points=[];autosize=1;strokeColor=none;fillColor=none;" parent="1" vertex="1">
          <mxGeometry x="700" y="175" width="30" height="30" as="geometry" />
        </mxCell>
        <mxCell id="TPSr9yGa7AURYz1Z4cIN-23" value="*" style="text;html=1;align=center;verticalAlign=middle;resizable=0;points=[];autosize=1;strokeColor=none;fillColor=none;" parent="1" vertex="1">
          <mxGeometry x="635" y="348" width="30" height="30" as="geometry" />
        </mxCell>
        <mxCell id="WrH0xrYeRPT7N6w4zJTb-1" value="Вопросы" style="swimlane;fontStyle=1;align=center;verticalAlign=top;childLayout=stackLayout;horizontal=1;startSize=26;horizontalStack=0;resizeParent=1;resizeParentMax=0;resizeLast=0;collapsible=1;marginBottom=0;whiteSpace=wrap;html=1;" parent="1" vertex="1">
          <mxGeometry x="1520" y="4" width="190" height="120" as="geometry" />
        </mxCell>
        <mxCell id="WrH0xrYeRPT7N6w4zJTb-2" value="+ заголовок" style="text;strokeColor=none;fillColor=none;align=left;verticalAlign=top;spacingLeft=4;spacingRight=4;overflow=hidden;rotatable=0;points=[[0,0.5],[1,0.5]];portConstraint=eastwest;whiteSpace=wrap;html=1;" parent="WrH0xrYeRPT7N6w4zJTb-1" vertex="1">
          <mxGeometry y="26" width="190" height="26" as="geometry" />
        </mxCell>
        <mxCell id="WrH0xrYeRPT7N6w4zJTb-3" value="+ описание" style="text;strokeColor=none;fillColor=none;align=left;verticalAlign=top;spacingLeft=4;spacingRight=4;overflow=hidden;rotatable=0;points=[[0,0.5],[1,0.5]];portConstraint=eastwest;whiteSpace=wrap;html=1;" parent="WrH0xrYeRPT7N6w4zJTb-1" vertex="1">
          <mxGeometry y="52" width="190" height="26" as="geometry" />
        </mxCell>
        <mxCell id="WrH0xrYeRPT7N6w4zJTb-4" value="" style="line;strokeWidth=1;fillColor=none;align=left;verticalAlign=middle;spacingTop=-1;spacingLeft=3;spacingRight=3;rotatable=0;labelPosition=right;points=[];portConstraint=eastwest;strokeColor=inherit;" parent="WrH0xrYeRPT7N6w4zJTb-1" vertex="1">
          <mxGeometry y="78" width="190" height="8" as="geometry" />
        </mxCell>
        <mxCell id="WrH0xrYeRPT7N6w4zJTb-5" value="- посмотреть_вопрос()" style="text;strokeColor=none;fillColor=none;align=left;verticalAlign=top;spacingLeft=4;spacingRight=4;overflow=hidden;rotatable=0;points=[[0,0.5],[1,0.5]];portConstraint=eastwest;whiteSpace=wrap;html=1;" parent="WrH0xrYeRPT7N6w4zJTb-1" vertex="1">
          <mxGeometry y="86" width="190" height="34" as="geometry" />
        </mxCell>
        <mxCell id="WrH0xrYeRPT7N6w4zJTb-7" value="Ответы" style="swimlane;fontStyle=1;align=center;verticalAlign=top;childLayout=stackLayout;horizontal=1;startSize=26;horizontalStack=0;resizeParent=1;resizeParentMax=0;resizeLast=0;collapsible=1;marginBottom=0;whiteSpace=wrap;html=1;" parent="1" vertex="1">
          <mxGeometry x="1520" y="-146" width="190" height="120" as="geometry" />
        </mxCell>
        <mxCell id="WrH0xrYeRPT7N6w4zJTb-8" value="+ ответ" style="text;strokeColor=none;fillColor=none;align=left;verticalAlign=top;spacingLeft=4;spacingRight=4;overflow=hidden;rotatable=0;points=[[0,0.5],[1,0.5]];portConstraint=eastwest;whiteSpace=wrap;html=1;" parent="WrH0xrYeRPT7N6w4zJTb-7" vertex="1">
          <mxGeometry y="26" width="190" height="26" as="geometry" />
        </mxCell>
        <mxCell id="WrH0xrYeRPT7N6w4zJTb-9" value="+ описание" style="text;strokeColor=none;fillColor=none;align=left;verticalAlign=top;spacingLeft=4;spacingRight=4;overflow=hidden;rotatable=0;points=[[0,0.5],[1,0.5]];portConstraint=eastwest;whiteSpace=wrap;html=1;" parent="WrH0xrYeRPT7N6w4zJTb-7" vertex="1">
          <mxGeometry y="52" width="190" height="26" as="geometry" />
        </mxCell>
        <mxCell id="WrH0xrYeRPT7N6w4zJTb-10" value="" style="line;strokeWidth=1;fillColor=none;align=left;verticalAlign=middle;spacingTop=-1;spacingLeft=3;spacingRight=3;rotatable=0;labelPosition=right;points=[];portConstraint=eastwest;strokeColor=inherit;" parent="WrH0xrYeRPT7N6w4zJTb-7" vertex="1">
          <mxGeometry y="78" width="190" height="8" as="geometry" />
        </mxCell>
        <mxCell id="WrH0xrYeRPT7N6w4zJTb-11" value="- ответить_на_вопрос()" style="text;strokeColor=none;fillColor=none;align=left;verticalAlign=top;spacingLeft=4;spacingRight=4;overflow=hidden;rotatable=0;points=[[0,0.5],[1,0.5]];portConstraint=eastwest;whiteSpace=wrap;html=1;" parent="WrH0xrYeRPT7N6w4zJTb-7" vertex="1">
          <mxGeometry y="86" width="190" height="34" as="geometry" />
        </mxCell>
        <mxCell id="WrH0xrYeRPT7N6w4zJTb-15" value="" style="endArrow=none;html=1;rounded=0;exitX=1.001;exitY=0.06;exitDx=0;exitDy=0;exitPerimeter=0;entryX=0;entryY=0.118;entryDx=0;entryDy=0;entryPerimeter=0;" parent="1" source="rwiLKkTHSAhQbcyG1G1G-74" target="WrH0xrYeRPT7N6w4zJTb-7" edge="1">
          <mxGeometry width="50" height="50" relative="1" as="geometry">
            <mxPoint x="1480" y="124" as="sourcePoint" />
            <mxPoint x="1530" y="74" as="targetPoint" />
          </mxGeometry>
        </mxCell>
        <mxCell id="WrH0xrYeRPT7N6w4zJTb-16" value="1" style="text;html=1;align=center;verticalAlign=middle;resizable=0;points=[];autosize=1;strokeColor=none;fillColor=none;" parent="1" vertex="1">
          <mxGeometry x="1450" y="64" width="30" height="30" as="geometry" />
        </mxCell>
        <mxCell id="WrH0xrYeRPT7N6w4zJTb-17" value="*" style="text;html=1;align=center;verticalAlign=middle;resizable=0;points=[];autosize=1;strokeColor=none;fillColor=none;" parent="1" vertex="1">
          <mxGeometry x="1495" y="-148" width="30" height="30" as="geometry" />
        </mxCell>
        <mxCell id="WrH0xrYeRPT7N6w4zJTb-18" value="" style="endArrow=none;html=1;rounded=0;exitX=1;exitY=0.176;exitDx=0;exitDy=0;exitPerimeter=0;entryX=0;entryY=0.124;entryDx=0;entryDy=0;entryPerimeter=0;" parent="1" source="rwiLKkTHSAhQbcyG1G1G-74" target="WrH0xrYeRPT7N6w4zJTb-1" edge="1">
          <mxGeometry width="50" height="50" relative="1" as="geometry">
            <mxPoint x="1490" y="124" as="sourcePoint" />
            <mxPoint x="1510" y="44" as="targetPoint" />
          </mxGeometry>
        </mxCell>
        <mxCell id="WrH0xrYeRPT7N6w4zJTb-19" value="1" style="text;html=1;align=center;verticalAlign=middle;resizable=0;points=[];autosize=1;strokeColor=none;fillColor=none;" parent="1" vertex="1">
          <mxGeometry x="1465" y="94" width="30" height="30" as="geometry" />
        </mxCell>
        <mxCell id="WrH0xrYeRPT7N6w4zJTb-20" value="*" style="text;html=1;align=center;verticalAlign=middle;resizable=0;points=[];autosize=1;strokeColor=none;fillColor=none;" parent="1" vertex="1">
          <mxGeometry x="1495" y="4" width="30" height="30" as="geometry" />
        </mxCell>
      </root>
    </mxGraphModel>
  </diagram>
</mxfile>
